<?xml version="1.0" encoding="UTF-8" standalone="no"?>
<!DOCTYPE svg PUBLIC "-//W3C//DTD SVG 1.1//EN" "http://www.w3.org/Graphics/SVG/1.1/DTD/svg11.dtd">
<svg width="100%" height="100%" viewBox="0 0 24 24" version="1.1" xmlns="http://www.w3.org/2000/svg" xmlns:xlink="http://www.w3.org/1999/xlink" xml:space="preserve" xmlns:serif="http://www.serif.com/" style="fill-rule:evenodd;clip-rule:evenodd;stroke-linejoin:round;stroke-miterlimit:2;">
    <g transform="matrix(1,0,0,1,2,2)">
        <path d="M10,18C14.4,18 18,14.4 18,10C18,5.6 14.4,2 10,2C5.6,2 2,5.6 2,10C2,14.4 5.6,18 10,18ZM10,0C15.5,0 20,4.5 20,10C20,15.5 15.5,20 10,20C4.5,20 0,15.5 0,10C0,4.5 4.5,0 10,0ZM10.5,10.8L5.7,13.6L5,12.2L9,9.9L9,5L10.5,5L10.5,10.8Z" style="fill:rgb(187,138,35);fill-rule:nonzero;"/>
    </g>
</svg>
