<?xml version="1.0" encoding="UTF-8" standalone="no"?>
<!DOCTYPE svg PUBLIC "-//W3C//DTD SVG 1.1//EN" "http://www.w3.org/Graphics/SVG/1.1/DTD/svg11.dtd">
<svg width="100%" height="100%" viewBox="0 0 24 24" version="1.1" xmlns="http://www.w3.org/2000/svg" xmlns:xlink="http://www.w3.org/1999/xlink" xml:space="preserve" xmlns:serif="http://www.serif.com/" style="fill-rule:evenodd;clip-rule:evenodd;stroke-linejoin:round;stroke-miterlimit:2;">
    <g transform="matrix(1,0,0,1,2,4)">
        <path d="M20,2C20,0.9 19.1,0 18,0L2,0C0.9,0 0,0.9 0,2L0,14C0,15.1 0.9,16 2,16L18,16C19.1,16 20,15.1 20,14L20,2ZM18,2L10,7L2,2L18,2ZM18,14L2,14L2,4L10,9L18,4L18,14Z" style="fill:rgb(187,138,35);fill-rule:nonzero;"/>
    </g>
</svg>
