<?xml version="1.0" encoding="UTF-8" standalone="no"?>
<!DOCTYPE svg PUBLIC "-//W3C//DTD SVG 1.1//EN" "http://www.w3.org/Graphics/SVG/1.1/DTD/svg11.dtd">
<svg width="100%" height="100%" viewBox="0 0 24 24" version="1.1" xmlns="http://www.w3.org/2000/svg" xmlns:xlink="http://www.w3.org/1999/xlink" xml:space="preserve" xmlns:serif="http://www.serif.com/" style="fill-rule:evenodd;clip-rule:evenodd;stroke-linejoin:round;stroke-miterlimit:2;">
    <g transform="matrix(1,0,0,1,-0.040201,0.040201)">
        <path d="M12,11.5C11.337,11.5 10.701,11.237 10.232,10.768C9.763,10.299 9.5,9.663 9.5,9C9.5,8.337 9.763,7.701 10.232,7.232C10.701,6.763 11.337,6.5 12,6.5C12.663,6.5 13.299,6.763 13.768,7.232C14.237,7.701 14.5,8.337 14.5,9C14.5,9.328 14.435,9.653 14.31,9.957C14.184,10.26 14,10.536 13.768,10.768C13.536,11 13.26,11.184 12.957,11.31C12.653,11.435 12.328,11.5 12,11.5ZM12,2C10.143,2 8.363,2.737 7.05,4.05C5.737,5.363 5,7.143 5,9C5,14.25 12,22 12,22C12,22 19,14.25 19,9C19,7.143 18.262,5.363 16.95,4.05C15.637,2.737 13.857,2 12,2Z" style="fill:rgb(187,138,35);fill-rule:nonzero;"/>
    </g>
</svg>
