<?xml version="1.0" encoding="UTF-8" standalone="no"?>
<!DOCTYPE svg PUBLIC "-//W3C//DTD SVG 1.1//EN" "http://www.w3.org/Graphics/SVG/1.1/DTD/svg11.dtd">
<svg width="100%" height="100%" viewBox="0 0 24 24" version="1.1" xmlns="http://www.w3.org/2000/svg" xmlns:xlink="http://www.w3.org/1999/xlink" xml:space="preserve" xmlns:serif="http://www.serif.com/" style="fill-rule:evenodd;clip-rule:evenodd;stroke-linejoin:round;stroke-miterlimit:2;">
    <g transform="matrix(1,0,0,1,0,2.5)">
        <path d="M12,0C7.46,0 3.34,1.78 0.29,4.67C0.11,4.85 0,5.1 0,5.38C0,5.66 0.11,5.91 0.29,6.09L2.77,8.57C2.95,8.75 3.2,8.86 3.5,8.86C3.75,8.86 4,8.75 4.18,8.58C4.97,7.84 5.87,7.22 6.84,6.73C7.17,6.57 7.4,6.23 7.4,5.83L7.4,2.73C8.85,2.25 10.39,2 12,2C13.59,2 15.14,2.25 16.59,2.72L16.59,5.82C16.59,6.21 16.82,6.56 17.15,6.72C18.13,7.21 19,7.84 19.82,8.57C20,8.75 20.25,8.85 20.5,8.85C20.8,8.85 21.05,8.74 21.23,8.56L23.71,6.08C23.89,5.9 24,5.65 24,5.37C24,5.09 23.88,4.85 23.7,4.67C20.65,1.78 16.53,0 12,0ZM9,4L9,7C9,7 3,12 3,15L3,19L21,19L21,15C21,12 15,7 15,7L15,4L13,4L13,6L11,6L11,4L9,4ZM12,9C13.061,9 14.078,9.421 14.828,10.172C15.579,10.922 16,11.939 16,13C16,14.061 15.579,15.078 14.828,15.828C14.078,16.579 13.061,17 12,17C10.939,17 9.922,16.579 9.172,15.828C8.421,15.078 8,14.061 8,13C8,11.939 8.421,10.922 9.172,10.172C9.922,9.421 10.939,9 12,9ZM12,10.5C11.337,10.5 10.701,10.763 10.232,11.232C9.763,11.701 9.5,12.337 9.5,13C9.5,13.663 9.763,14.299 10.232,14.768C10.701,15.237 11.337,15.5 12,15.5C12.663,15.5 13.299,15.237 13.768,14.768C14.237,14.299 14.5,13.663 14.5,13C14.5,12.337 14.237,11.701 13.768,11.232C13.299,10.763 12.663,10.5 12,10.5Z" style="fill:rgb(187,138,35);fill-rule:nonzero;"/>
    </g>
</svg>
