<?xml version="1.0" encoding="UTF-8" standalone="no"?>
<!-- Created with Inkscape (http://www.inkscape.org/) -->

<svg
   width="200"
   height="115"
   viewBox="0 0 52.916666 30.427083"
   version="1.1"
   id="svg1"
   inkscape:export-filename="logo_150.png"
   inkscape:export-xdpi="72"
   inkscape:export-ydpi="72"
   inkscape:version="1.4.2 (f4327f4, 2025-05-13)"
   sodipodi:docname="logo.svg"
   xmlns:inkscape="http://www.inkscape.org/namespaces/inkscape"
   xmlns:sodipodi="http://sodipodi.sourceforge.net/DTD/sodipodi-0.dtd"
   xmlns="http://www.w3.org/2000/svg"
   xmlns:svg="http://www.w3.org/2000/svg">
  <sodipodi:namedview
     id="namedview1"
     pagecolor="#ffffff"
     bordercolor="#000000"
     borderopacity="0.25"
     inkscape:showpageshadow="true"
     inkscape:pageopacity="0.0"
     inkscape:pagecheckerboard="true"
     inkscape:deskcolor="#d1d1d1"
     inkscape:document-units="mm"
     showguides="true"
     showgrid="true"
     inkscape:antialias-rendering="true"
     showborder="true"
     inkscape:zoom="2.9683221"
     inkscape:cx="144.52609"
     inkscape:cy="131.89269"
     inkscape:window-width="1920"
     inkscape:window-height="1051"
     inkscape:window-x="-9"
     inkscape:window-y="-9"
     inkscape:window-maximized="1"
     inkscape:current-layer="layer2"
     inkscape:export-bgcolor="#ffffff00">
    <inkscape:grid
       id="grid1"
       units="mm"
       originx="0"
       originy="0"
       spacingx="0.99999998"
       spacingy="1"
       empcolor="#0099e5"
       empopacity="0.30196078"
       color="#0099e5"
       opacity="0.14901961"
       empspacing="5"
       enabled="false"
       visible="true" />
    <inkscape:grid
       id="grid2"
       units="mm"
       originx="0"
       originy="0"
       spacingx="0.99999998"
       spacingy="1"
       empcolor="#0099e5"
       empopacity="0.30196078"
       color="#0099e5"
       opacity="0.14901961"
       empspacing="5"
       enabled="false"
       visible="true" />
    <inkscape:grid
       type="axonomgrid"
       id="grid3"
       units="mm"
       originx="0"
       originy="0"
       spacingx="0.99999998"
       spacingy="1"
       empcolor="#0099e5"
       empopacity="0.30196078"
       color="#0099e5"
       opacity="0.14901961"
       empspacing="5"
       dotted="false"
       gridanglex="30"
       gridanglez="30"
       enabled="false"
       visible="true" />
    <sodipodi:guide
       position="71.308524,138.33493"
       orientation="1,0"
       id="guide3"
       inkscape:locked="false" />
    <sodipodi:guide
       position="105.89316,152.95318"
       orientation="0,-1"
       id="guide4"
       inkscape:locked="false" />
    <sodipodi:guide
       position="201.09004,108.02881"
       orientation="1,0"
       id="guide5"
       inkscape:locked="false" />
    <sodipodi:guide
       position="122.29412,78.792319"
       orientation="0,-1"
       id="guide6"
       inkscape:locked="false" />
  </sodipodi:namedview>
  <defs
     id="defs1">
    <clipPath
       clipPathUnits="userSpaceOnUse"
       id="clipPath3-7">
      <path
         d="M 0,768 H 1366 V 0 H 0 Z"
         transform="translate(-393.93811,-495.63381)"
         id="path3-9" />
    </clipPath>
  </defs>
  <g
     inkscape:label="Calque 1"
     inkscape:groupmode="layer"
     id="layer1" />
  <g
     inkscape:groupmode="layer"
     id="layer2"
     inkscape:label="Calque 2">
    <g
       id="g1"
       transform="matrix(0.40719944,0,0,0.40719944,-89.627045,-15.164925)">
      <text
         id="text1-4"
         xml:space="preserve"
         transform="rotate(-16.048959)"
         x="190.70114"
         y="157.67535"
         style="font-size:4.23333px;stroke-width:0.352777"><tspan
           id="tspan1-3"
           style="font-variant:normal;font-weight:normal;font-stretch:normal;font-size:33.1362px;font-family:'Chalk-hand-lettering-shaded DEM';writing-mode:lr-tb;fill:#ffffff;fill-opacity:1;fill-rule:nonzero;stroke:none;stroke-width:0.352777"
           x="190.70114"
           dx="0 -0.33136213 0 0.9642638 1.2194127 -0.39763457 0 -0.33136213"
           y="157.67535">Gourmand</tspan></text>
      <text
         id="text2-1"
         xml:space="preserve"
         transform="rotate(-18.245612)"
         x="208.22063"
         y="147.22044"
         style="font-size:4.23333px;stroke-width:0.352777"><tspan
           id="tspan2-2"
           style="font-variant:normal;font-weight:normal;font-stretch:normal;font-size:23.7393px;font-family:'Chalk-hand-lettering-shaded DEM';writing-mode:lr-tb;fill:#ffffff;fill-opacity:1;fill-rule:nonzero;stroke:none;stroke-width:0.352777"
           x="208.22063"
           dx="0 3.5324109 0 -0.35608983"
           y="147.22044">Vite </tspan></text>
      <path
         id="path2-3"
         d="M 0,0 C -0.592,0.834 -1,1.637 -1.222,2.409 -1.52,3.446 -1.537,4.368 -1.273,5.175 -1.009,5.982 -0.548,6.669 0.111,7.238 0.77,7.805 1.546,8.218 2.438,8.475 3.619,8.815 4.637,8.814 5.493,8.472 6.348,8.131 6.901,7.526 7.151,6.658 7.303,6.128 7.3,5.572 7.14,4.991 6.981,4.41 6.656,3.768 6.167,3.066 5.677,2.363 4.985,1.571 4.091,0.687 L 1.588,-1.832 C 0.938,-1.18 0.402,-0.567 0,0 m -0.272,-24.519 c -0.093,0.206 -0.178,0.422 -0.246,0.658 -0.326,1.133 -0.265,2.259 0.183,3.381 0.403,1.009 1.147,2.148 2.228,3.416 l 6.6,-4.933 21.088,6.066 c 0.506,1.962 0.84,3.99 0.997,6.086 0.242,3.242 0.155,6.539 -0.261,9.892 L 18.815,-3.262 c 0.274,-2.402 0.069,-4.843 -0.614,-7.323 -0.305,-1.107 -0.686,-2.179 -1.123,-3.225 l -7.385,5.479 2.85,3.187 c 1.4,1.577 2.516,3.164 3.349,4.762 0.833,1.596 1.405,3.217 1.715,4.86 0.311,1.642 0.37,3.297 0.178,4.965 -0.306,2.784 -1.223,5.157 -2.753,7.119 -1.53,1.961 -3.53,3.305 -5.996,4.032 -2.468,0.725 -5.281,0.635 -8.439,-0.274 -3.015,-0.867 -5.571,-2.282 -7.67,-4.242 -2.098,-1.962 -3.634,-4.225 -4.606,-6.789 -0.973,-2.564 -1.305,-5.199 -0.997,-7.903 0.315,-2.73 1.098,-5.089 2.35,-7.079 1.088,-1.73 2.3,-3.216 3.621,-4.484 l -0.593,-0.597 c -1.665,-1.837 -3.081,-3.608 -4.247,-5.314 -1.168,-1.706 -2.02,-3.42 -2.556,-5.141 -0.536,-1.721 -0.694,-3.555 -0.473,-5.501 0.074,-0.625 0.187,-1.225 0.324,-1.81 z"
         style="fill:#fab613;fill-opacity:1;fill-rule:nonzero;stroke:none"
         transform="matrix(0.35277776,0,0,-0.35277776,292.08747,50.136035)"
         clip-path="url(#clipPath3-7)" />
    </g>
  </g>
</svg>
